<?xml version="1.0" standalone="no"?>
<!DOCTYPE svg PUBLIC "-//W3C//DTD SVG 20010904//EN"
 "http://www.w3.org/TR/2001/REC-SVG-20010904/DTD/svg10.dtd">
<svg version="1.0" xmlns="http://www.w3.org/2000/svg"
 width="725.000000pt" height="730.000000pt" viewBox="0 0 725.000000 730.000000"
 preserveAspectRatio="xMidYMid meet">

<g transform="translate(0.000000,730.000000) scale(0.100000,-0.100000)"
fill="#000000" stroke="none">
<path d="M3420 7293 c-711 -39 -1394 -279 -1954 -688 -752 -548 -1256 -1332
-1441 -2244 -13 -64 -21 -119 -19 -123 3 -5 42 -8 87 -8 160 -1 306 -50 388
-131 37 -37 102 -111 289 -331 l26 -29 779 1060 c429 583 782 1060 785 1060 3
0 272 -519 599 -1155 327 -635 597 -1157 600 -1158 4 -3 1229 3260 1318 3511
5 12 -160 69 -337 117 -351 95 -764 139 -1120 119z"/>
<path d="M4960 7023 c0 -4 407 -791 905 -1748 552 -1063 916 -1753 936 -1774
56 -59 132 -80 350 -96 l87 -7 7 109 c9 132 0 381 -21 563 -46 404 -178 849
-359 1210 -369 734 -1007 1351 -1742 1684 -134 60 -163 71 -163 59z"/>
<path d="M5105 4273 c-4 -10 -319 -853 -702 -1873 -382 -1020 -698 -1858 -702
-1862 -3 -4 -346 645 -761 1442 -415 798 -758 1450 -762 1450 -4 0 -292 -360
-640 -799 -348 -440 -635 -800 -639 -800 -3 -1 -184 188 -404 419 -219 231
-400 418 -402 416 -2 -2 17 -67 42 -145 181 -554 475 -1031 890 -1446 607
-608 1353 -962 2225 -1056 149 -16 552 -16 705 0 715 75 1364 339 1922 782
162 129 439 406 571 571 167 211 353 505 446 710 l35 77 -298 3 -298 3 -39 26
c-35 24 -94 126 -593 1035 -305 555 -562 1022 -572 1037 -14 25 -17 26 -24 10z"/>
</g>
</svg>
